<?xml version="1.0" standalone="no"?><!DOCTYPE svg PUBLIC "-//W3C//DTD SVG 1.1//EN" "http://www.w3.org/Graphics/SVG/1.1/DTD/svg11.dtd"><svg t="1677634622280" class="icon" viewBox="0 0 1024 1024" version="1.1" xmlns="http://www.w3.org/2000/svg" p-id="4518" xmlns:xlink="http://www.w3.org/1999/xlink" width="200" height="200"><path d="M512 72.96c59.306667 0 116.906667 11.52 171.050667 34.432a440.021333 440.021333 0 0 1 139.733333 94.208c40.362667 40.362667 72.106667 87.424 94.208 139.776 22.997333 54.229333 34.56 111.786667 34.56 171.093333 0 59.392-11.562667 116.906667-34.432 171.093334a440.021333 440.021333 0 0 1-94.208 139.733333 437.290667 437.290667 0 0 1-139.776 94.208c-54.229333 22.997333-111.786667 34.56-171.136 34.56-59.306667 0-116.906667-11.562667-171.050667-34.474667a440.021333 440.021333 0 0 1-139.733333-94.208 437.290667 437.290667 0 0 1-94.208-139.733333 436.181333 436.181333 0 0 1-34.56-171.136c0-59.349333 11.562667-116.906667 34.432-171.050667a440.021333 440.021333 0 0 1 94.208-139.776A437.290667 437.290667 0 0 1 340.906667 107.52c54.229333-22.954667 111.786667-34.56 171.136-34.56z m0-71.978667C229.461333 0.981333 0.512 229.973333 0.512 512.512 0.512 795.008 229.461333 1024 512 1024s511.488-228.992 511.488-511.488C1023.488 229.973333 794.538667 0.981333 512 0.981333z m0 318.805334a35.84 35.84 0 0 0-26.282667 11.392L264.96 566.741333a35.968 35.968 0 0 0 52.437333 49.237334L512 408.405333l194.517333 207.488a35.968 35.968 0 0 0 52.48-49.237333L538.112 331.093333A35.712 35.712 0 0 0 512 319.786667z" fill="#1195db" fill-opacity=".65" p-id="4519"></path></svg>