<?xml version="1.0" standalone="no"?><!DOCTYPE svg PUBLIC "-//W3C//DTD SVG 1.1//EN" "http://www.w3.org/Graphics/SVG/1.1/DTD/svg11.dtd"><svg t="1677634587721" class="icon" viewBox="0 0 1024 1024" version="1.1" xmlns="http://www.w3.org/2000/svg" p-id="3896" xmlns:xlink="http://www.w3.org/1999/xlink" width="200" height="200"><path d="M702.293333 861.312H297.898667a240.426667 240.426667 0 0 1-90.197334-17.109333 236.970667 236.970667 0 0 1-76.373333-50.304 230.528 230.528 0 0 1-52.522667-75.690667 229.589333 229.589333 0 0 1-18.005333-90.325333c0-54.997333 17.792-104.362667 52.906667-146.773334a238.08 238.08 0 0 1 42.410666-40.405333c0.170667-24.789333 5.12-48.512 14.506667-70.613333a184.746667 184.746667 0 0 1 41.813333-60.586667l0.042667-0.085333a189.482667 189.482667 0 0 1 61.226667-40.234667 190.72 190.72 0 0 1 71.808-13.653333c8.490667 0 16.768 0.469333 25.002666 1.450666a290.56 290.56 0 0 1 53.973334-46.378666 280.490667 280.490667 0 0 1 158.890666-47.786667c38.528 0 75.008 6.869333 108.501334 20.48a282.965333 282.965333 0 0 1 92.032 60.586667 279.04 279.04 0 0 1 62.805333 90.624c9.472 22.186667 15.786667 45.653333 18.986667 70.314666 21.333333 16.768 39.893333 36.992 55.296 60.16l7.296 10.922667v0.682667c23.210667 39.253333 34.986667 82.218667 34.986666 128.213333 0 34.816-6.698667 68.181333-19.797333 99.114667a255.829333 255.829333 0 0 1-57.6 83.072 262.485333 262.485333 0 0 1-84.266667 55.594666 265.685333 265.685333 0 0 1-99.328 18.730667zM262.613333 360.917333c-11.52 11.178667-20.224 23.68-25.728 36.992l-0.085333 0.170667c-5.802667 13.738667-8.789333 28.586667-8.789333 44.330667 0 4.394667 0.170667 8.704 0.682666 12.970666l2.517334 22.912-19.712 11.818667a161.792 161.792 0 0 0-42.197334 36.693333l-0.085333 0.213334a154.154667 154.154667 0 0 0-36.394667 100.864c0 22.101333 4.096 43.008 12.288 62.122666 8.106667 19.114667 20.309333 36.608 36.394667 52.181334 16.085333 15.616 34.005333 27.52 53.333333 35.328 19.370667 7.893333 40.533333 11.904 63.061334 11.904h404.394666c25.685333 0 50.005333-4.608 72.192-13.525334 22.186667-8.96 42.794667-22.613333 61.098667-40.405333 18.346667-17.792 32.298667-37.888 41.6-59.690667a180.48 180.48 0 0 0 13.994667-70.912c0-35.498667-9.813333-68.48-29.184-98.304l-2.304-3.498666a186.026667 186.026667 0 0 0-48.682667-48.981334l-14.421333-9.813333-1.194667-17.408a197.290667 197.290667 0 0 0-15.189333-64.085333 207.573333 207.573333 0 0 0-46.933334-67.285334 211.370667 211.370667 0 0 0-68.693333-45.397333 215.68 215.68 0 0 0-81.493333-15.232c-43.562667 0-83.584 12.032-118.869334 35.626667a215.168 215.168 0 0 0-51.413333 47.701333l-14.506667 18.773333-22.997333-5.888a123.690667 123.690667 0 0 0-30.208-3.584c-15.786667 0-30.890667 2.773333-44.8 8.405334a118.101333 118.101333 0 0 0-37.674667 25.002666z" fill="#1195db" opacity=".65" p-id="3897"></path></svg>