<?xml version="1.0" standalone="no"?><!DOCTYPE svg PUBLIC "-//W3C//DTD SVG 1.1//EN" "http://www.w3.org/Graphics/SVG/1.1/DTD/svg11.dtd"><svg t="1676881911707" class="icon" viewBox="0 0 1024 1024" version="1.1" xmlns="http://www.w3.org/2000/svg" p-id="3094" xmlns:xlink="http://www.w3.org/1999/xlink" width="200" height="200"><path d="M513.9968 84.6336A417.1776 417.1776 0 1 0 931.1232 501.76a417.6384 417.6384 0 0 0-417.1264-417.1264z m0 778.24A360.8576 360.8576 0 1 1 874.8032 501.76a361.2672 361.2672 0 0 1-360.8064 360.8576z" fill="#1095db" p-id="3095"></path><path d="M627.6096 539.2384l-81.92 70.8096V320.3072a28.16 28.16 0 0 0-56.32 0v292.4032L404.1728 542.72a28.16 28.16 0 1 0-35.84 43.4688l130.4576 107.52a28.2624 28.2624 0 0 0 36.3008-0.4096l129.2288-111.4112a28.16 28.16 0 1 0-36.7616-42.6496z" fill="#1095db" p-id="3096"></path></svg>