<?xml version="1.0" standalone="no"?><!DOCTYPE svg PUBLIC "-//W3C//DTD SVG 1.1//EN" "http://www.w3.org/Graphics/SVG/1.1/DTD/svg11.dtd"><svg t="1677635344423" class="icon" viewBox="0 0 1024 1024" version="1.1" xmlns="http://www.w3.org/2000/svg" p-id="2926" xmlns:xlink="http://www.w3.org/1999/xlink" width="200" height="200"><path d="M323.2 480H230.4C156.8 480 96 419.2 96 345.6V252.8c0-73.6 60.8-134.4 134.4-134.4h92.8c73.6 0 134.4 60.8 134.4 134.4v92.8c0 73.6-60.8 134.4-134.4 134.4zM230.4 182.4C192 182.4 160 214.4 160 252.8v92.8C160 384 192 416 230.4 416h92.8c38.4 0 70.4-32 70.4-70.4V252.8c0-38.4-32-70.4-70.4-70.4H230.4zM896 217.6h-300.8c-19.2 0-32-12.8-32-32s12.8-32 32-32H896c19.2 0 32 12.8 32 32s-12.8 32-32 32zM896 441.6h-300.8c-19.2 0-32-12.8-32-32s12.8-32 32-32H896c19.2 0 32 12.8 32 32s-12.8 32-32 32z" p-id="2927" fill="#1195db"></path><path d="M896 691.2H128c-19.2 0-32-12.8-32-32s12.8-32 32-32h768c19.2 0 32 12.8 32 32s-12.8 32-32 32z" p-id="2928" fill="#1195db"></path><path d="M896 905.6H128c-19.2 0-32-12.8-32-32s12.8-32 32-32h768c19.2 0 32 12.8 32 32s-12.8 32-32 32z" p-id="2929" fill="#1195db"></path></svg>