<?xml version="1.0" standalone="no"?><!DOCTYPE svg PUBLIC "-//W3C//DTD SVG 1.1//EN" "http://www.w3.org/Graphics/SVG/1.1/DTD/svg11.dtd"><svg t="1677635320550" class="icon" viewBox="0 0 1024 1024" version="1.1" xmlns="http://www.w3.org/2000/svg" p-id="2711" xmlns:xlink="http://www.w3.org/1999/xlink" width="200" height="200"><path d="M796.8 291.2c-19.2 0-32 12.8-32 32s12.8 32 32 32c35.2 0 64 28.8 64 64v313.6c0 35.2-28.8 64-64 64H227.2c-35.2 0-64-28.8-64-64v-313.6c0-35.2 28.8-64 64-64 19.2 0 32-12.8 32-32s-12.8-32-32-32c-70.4 0-128 57.6-128 128v313.6c0 70.4 57.6 128 128 128H800c70.4 0 128-57.6 128-128v-313.6c-3.2-70.4-60.8-128-131.2-128z" p-id="2712" fill="#1195db"></path><path d="M489.6 675.2c6.4 6.4 16 9.6 22.4 9.6 9.6 0 16-3.2 22.4-9.6l124.8-124.8c12.8-12.8 12.8-32 0-44.8s-32-12.8-44.8 0L544 579.2v-384c0-19.2-12.8-32-32-32s-32 12.8-32 32V576l-70.4-70.4c-12.8-12.8-32-12.8-44.8 0s-12.8 32 0 44.8l124.8 124.8z" p-id="2713" fill="#1195db"></path></svg>