<?xml version="1.0" standalone="no"?><!DOCTYPE svg PUBLIC "-//W3C//DTD SVG 1.1//EN" "http://www.w3.org/Graphics/SVG/1.1/DTD/svg11.dtd"><svg t="1677635306984" class="icon" viewBox="0 0 1024 1024" version="1.1" xmlns="http://www.w3.org/2000/svg" p-id="2495" xmlns:xlink="http://www.w3.org/1999/xlink" width="200" height="200"><path d="M518.4 192h-9.6c-28.8-9.6-60.8-12.8-92.8-12.8-19.2 0-32-12.8-35.2-28.8 0-19.2 12.8-32 28.8-35.2 38.4-3.2 80 3.2 118.4 12.8 16 6.4 25.6 22.4 19.2 41.6-3.2 12.8-16 22.4-28.8 22.4z" p-id="2496" fill="#1195db"></path><path d="M428.8 755.2c-102.4 0-201.6-48-262.4-137.6-99.2-144-64-345.6 80-444.8 12.8-12.8 35.2-6.4 44.8 6.4 9.6 16 6.4 35.2-9.6 44.8-57.6 38.4-92.8 99.2-105.6 166.4-12.8 67.2 3.2 134.4 41.6 192 80 115.2 240 144 355.2 64 115.2-80 144-240 64-355.2-9.6-12.8-19.2-25.6-32-38.4-12.8-12.8-12.8-32 0-44.8 12.8-12.8 32-12.8 44.8 0 16 16 28.8 32 41.6 48 102.4 144 64 345.6-80 444.8-54.4 35.2-118.4 54.4-182.4 54.4z" p-id="2497" fill="#1195db"></path><path d="M752 944c-16 0-28.8-6.4-38.4-19.2l-147.2-211.2c-16-22.4-9.6-51.2 12.8-67.2s51.2-9.6 67.2 12.8l147.2 211.2c16 22.4 9.6 51.2-12.8 67.2-9.6 3.2-19.2 6.4-28.8 6.4z" p-id="2498" fill="#1195db"></path></svg>