<?xml version="1.0" standalone="no"?><!DOCTYPE svg PUBLIC "-//W3C//DTD SVG 1.1//EN" "http://www.w3.org/Graphics/SVG/1.1/DTD/svg11.dtd"><svg t="1676881810667" class="icon" viewBox="0 0 1024 1024" version="1.1" xmlns="http://www.w3.org/2000/svg" p-id="2072" data-spm-anchor-id="a313x.7781069.0.i10" xmlns:xlink="http://www.w3.org/1999/xlink" width="200" height="200"><path d="M793.2416 212.5824a182.784 182.784 0 0 0-157.9008-91.1872H399.36a182.9376 182.9376 0 0 0-157.7984 91.1872l-117.76 204.1856a182.6816 182.6816 0 0 0 0 182.3744l117.76 204.2368A182.9888 182.9888 0 0 0 399.36 894.5152h235.8272a182.8352 182.8352 0 0 0 157.9008-91.136L911.36 599.04a182.9376 182.9376 0 0 0 0-182.3744z m69.12 358.4l-117.76 204.2368a126.3104 126.3104 0 0 1-109.1072 62.976H399.36a126.3616 126.3616 0 0 1-109.1584-62.976l-117.76-204.2368a126.5152 126.5152 0 0 1 0-126.0544L290.3552 240.64A126.2592 126.2592 0 0 1 399.36 177.7152h235.8272A126.2592 126.2592 0 0 1 744.448 240.64l117.76 204.1856a126.2592 126.2592 0 0 1 0.1536 126.1568z" fill="#1196db" p-id="2073" data-spm-anchor-id="a313x.7781069.0.i8" class="selected"></path><path d="M517.4272 343.3984a164.608 164.608 0 1 0 164.5568 164.5568 164.7616 164.7616 0 0 0-164.5568-164.5568z m0 272.8448a108.288 108.288 0 1 1 108.2368-108.288 108.4416 108.4416 0 0 1-108.2368 108.288z" fill="#1196db" p-id="2074" data-spm-anchor-id="a313x.7781069.0.i11" class="selected"></path></svg>