<?xml version="1.0" standalone="no"?><!DOCTYPE svg PUBLIC "-//W3C//DTD SVG 1.1//EN" "http://www.w3.org/Graphics/SVG/1.1/DTD/svg11.dtd"><svg t="1676881897375" class="icon" viewBox="0 0 1024 1024" version="1.1" xmlns="http://www.w3.org/2000/svg" p-id="2825" data-spm-anchor-id="a313x.7781069.0.i19" xmlns:xlink="http://www.w3.org/1999/xlink" width="200" height="200"><path d="M520.6016 88.8832a417.1776 417.1776 0 1 0 417.1264 417.1264 417.6384 417.6384 0 0 0-417.1264-417.1264z m0 778.24a360.8576 360.8576 0 1 1 360.8064-360.8576 361.2672 361.2672 0 0 1-360.8064 360.6016z" fill="#1095db" p-id="2826" data-spm-anchor-id="a313x.7781069.0.i20" class="selected"></path><path d="M707.7888 543.8976h-181.4016V325.5296a28.16 28.16 0 1 0-56.32 0v246.528a28.16 28.16 0 0 0 28.16 28.16h209.5616a28.16 28.16 0 0 0 0-56.32z" fill="#1095db" p-id="2827" data-spm-anchor-id="a313x.7781069.0.i22" class="selected"></path></svg>