<?xml version="1.0" standalone="no"?><!DOCTYPE svg PUBLIC "-//W3C//DTD SVG 1.1//EN" "http://www.w3.org/Graphics/SVG/1.1/DTD/svg11.dtd"><svg t="1677634527896" class="icon" viewBox="0 0 1024 1024" version="1.1" xmlns="http://www.w3.org/2000/svg" p-id="3246" xmlns:xlink="http://www.w3.org/1999/xlink" width="200" height="200"><path d="M698.48823 318.834715c3.114537 0 6.101079 0.08533 9.002291 0.426649l2.133245 0.17066 2.047914 0.085329c11.43419 0.511979 34.217241 2.815883 59.60285 13.098121 8.703637 3.498521 16.895296 7.67968 24.745636 12.500813a298.398233 298.398233 0 0 0-56.317654 89.809591 289.267947 289.267947 0 0 0-20.308487 109.776759c0.682638 81.916587 31.188034 154.617558 88.102996 210.209908 10.879547 10.580892 21.759093 19.711179 32.169326 27.476189-9.898254 21.801758-23.465689 47.699346-41.299612 73.810258-20.479147 29.908087-38.995709 56.104329-57.981584 73.895587-19.1992 17.919253-31.785342 20.393817-40.57431 20.607142h-1.706595c-16.212658 0-26.87888-4.266489-47.528687-13.311446-26.79355-11.60485-63.400025-27.390859-118.395067-27.390858-56.658973 0-94.588059 16.212658-122.277571 27.988167-20.607141 8.831632-32.083997 13.396775-48.08333 13.994083h-0.853298c-12.372818 0-27.561518-11.946169-38.142411-22.057747-21.03379-20.052498-41.512937-48.808633-60.712137-76.498146-41.214283-59.51752-73.980917-141.220782-87.591017-218.444232-7.50902-42.579559-9.300946-82.940544-5.205116-119.760343 4.181159-38.31307 14.676722-72.188992 31.102704-100.774468a189.261447 189.261447 0 0 1 65.10662-67.325194 169.294279 169.294279 0 0 1 85.287113-25.001625h1.493272c22.783051 0 50.08858 10.794217 76.370151 21.332444 28.926795 11.476855 58.706887 23.295029 89.937586 23.29503 29.396108 0 57.76826-11.220866 87.761676-23.039041 29.524103-11.69018 62.802717-24.87363 92.156161-24.87363z m0-72.018332c-73.682263 0-142.07408 47.784676-179.789842 47.784675-39.806341 0-101.201117-44.584809-166.393067-44.584809h-2.559894c-86.951044 1.279947-167.03304 50.515229-211.831173 128.421316-90.278905 156.665472-23.081705 388.762468 64.893296 515.861173 42.32357 61.224116 92.582809 129.701262 158.201408 129.701262 1.194617 0 2.303904 0 3.498521-0.08533 64.807966-2.602558 89.382942-42.024916 167.673013-42.024915 77.223449 0 99.707846 40.702304 165.923754 40.702304h3.071872c69.799758-1.279947 114.000583-63.400025 156.708137-125.776093 49.405941-72.188992 69.714429-141.98875 70.909045-145.615266-1.621266-0.682638-136.015666-52.179159-137.380942-207.095371-1.322612-129.701262 105.68093-191.864006 110.502062-194.978543-60.157493-87.975001-153.806925-100.09183-187.213533-101.49977a175.694013 175.694013 0 0 0-16.212657-0.810633zM715.810175 0.042665c-51.496521 2.133244-113.829924 34.302571-150.820383 77.479438-33.107954 38.3984-58.706887 99.622516-50.899212 158.414733 57.51227 4.479813 112.720637-29.182784 148.473813-72.530311 35.710512-43.176868 59.816174-103.377026 53.245782-163.36386z" fill="#1195db" p-id="3247"></path></svg>